#!OML:ASF H:\GeneralSubjects\Female5\Project 1\Capture day 1\Session 1\Female5.ASF
:FULLY-SPECIFIED
:DEGREES
284
root 10.3884 15.6468 4.3027 -176.048 -39.5879 -173.143
lowerback 6.46199 2.11642 4.56272
upperback -10.3151 3.24926 2.99291
thorax -14.981 0.970496 0.244517
lowerneck -16.9549 -2.91699 -2.13505
upperneck 34.2776 -4.51016 -2.64513
head 14.6682 -3.23811 -1.6678
rclavicle -7.04692e-014 7.95139e-016
rhumerus -51.0967 21.6559 -85.1818
rradius 36.4891
rwrist -6.89145
rhand -23.7776 -22.4802
rfingers 7.12502
rthumb 2.69212 307.557
lclavicle -7.04692e-014 7.95139e-016
lhumerus -47.8523 8.17129 74.6288
lradius 31.7979
lwrist -12.6299
lhand -24.6708 33.9838
lfingers 7.12502
lthumb 1.8295 63.9557
rfemur 11.8217 45.388 46.9552
rtibia -12.8366
rfoot -66.1567 -33.7423
rtoes 34.5732
lfemur -21.9132 -25.1784 2.70285
ltibia 12.4947
lfoot -13.6877 21.9262
ltoes -68.5062
285
root 10.3851 15.6506 4.30112 -176.024 -39.6642 -173.183
lowerback 6.53371 2.10251 4.612
upperback -10.2588 3.24645 2.97726
thorax -14.955 0.966984 0.196588
lowerneck -17.1378 -2.91007 -2.19306
upperneck 34.2439 -4.48294 -2.55759
head 14.6992 -3.21244 -1.62002
rclavicle -6.25178e-014 -3.18055e-014
rhumerus -50.8695 21.5785 -85.0672
rradius 36.2422
rwrist -6.74756
rhand -23.7226 -22.4624
rfingers 7.12502
rthumb 2.74522 307.576
lclavicle -6.25178e-014 -3.18055e-014
lhumerus -47.6024 8.05412 74.8034
lradius 31.9446
lwrist -12.2555
lhand -24.3456 34.3075
lfingers 7.12502
lthumb 2.14358 64.2765
rfemur 11.7202 45.3224 46.8603
rtibia -12.7322
rfoot -66.1547 -33.8264
rtoes 34.3986
lfemur -21.8323 -25.2831 2.63924
ltibia 12.3319
lfoot -13.1062 22.3278
ltoes -68.8594
286
root 10.3851 15.6544 4.3 -175.966 -39.7336 -173.26
lowerback 6.57184 2.087 4.60144
upperback -10.207 3.22904 2.94482
thorax -14.9148 0.962543 0.166713
lowerneck -17.227 -2.88233 -2.33611
upperneck 34.0774 -4.47455 -2.21514
head 14.6578 -3.16503 -1.44712
rclavicle 8.36883e-014 -1.19271e-015
rhumerus -50.7137 21.5464 -85.0313
rradius 36.034
rwrist -6.73546
rhand -23.7929 -22.2436
rfingers 7.12502
rthumb 2.67735 307.793
lclavicle 8.36883e-014 -1.19271e-015
lhumerus -47.4006 7.92897 74.9627
lradius 32.0969
lwrist -11.9327
lhand -23.5594 34.8152
lfingers 7.12502
lthumb 2.90284 64.7752
rfemur 11.6175 45.2646 46.7267
rtibia -12.6668
rfoot -66.2028 -33.7274
rtoes 34.4822
lfemur -21.81 -25.3032 2.54603
ltibia 12.2464
lfoot -12.4296 22.6436
ltoes -69.2818
287
root 10.3848 15.6565 4.29825 -175.913 -39.8128 -173.356
lowerback 6.59486 2.08146 4.56062
upperback -10.1871 3.21887 2.92488
thorax -14.9062 0.963133 0.167584
lowerneck -17.0798 -2.90566 -2.45212
upperneck 33.8856 -4.49914 -2.09094
head 14.5439 -3.16716 -1.36763
rclavicle 1.02672e-013 1.51076e-014
rhumerus -50.7599 21.5762 -85.0233
rradius 35.9596
rwrist -6.83413
rhand -23.7766 -22.1677
rfingers 7.12502
rthumb 2.69312 307.87
lclavicle 1.02672e-013 1.51076e-014
lhumerus -47.2806 7.80477 75.1469
lradius 32.2951
lwrist -12.0382
lhand -26.0663 32.4134
lfingers 7.12502
lthumb 0.481665 62.3926
rfemur 11.6535 45.1841 46.6775
rtibia -12.6904
rfoot -66.2681 -33.5327
rtoes 34.6823
lfemur -21.7851 -25.2981 2.42903
ltibia 12.1741
lfoot -12.009 22.7901
ltoes -69.4976
288
root 10.382 15.6586 4.29784 -175.803 -39.94 -173.511
lowerback 6.63252 2.07661 4.47324
upperback -10.2075 3.20352 2.91402
thorax -14.9593 0.963873 0.206083
lowerneck -17.0031 -2.87119 -2.47651
upperneck 33.8958 -4.41652 -2.17777
head 14.5296 -3.15007 -1.38315
rclavicle -6.65929e-015 2.54444e-014
rhumerus -50.8355 21.4813 -84.9076
rradius 35.8896
rwrist -6.73698
rhand -23.4997 -22.2767
rfingers 7.12502
rthumb 2.96051 307.764
lclavicle -6.65929e-015 2.54444e-014
lhumerus -47.2231 7.60539 75.3973
lradius 32.4863
lwrist -12.291
lhand -22.4408 35.4005
lfingers 7.12502
lthumb 3.98311 65.343
rfemur 11.6834 45.0611 46.5604
rtibia -12.7808
rfoot -66.2431 -33.5706
rtoes 34.715
lfemur -21.8358 -25.2778 2.24583
ltibia 12.1788
lfoot -11.6989 22.8126
ltoes -69.642
289
root 10.3781 15.6607 4.29864 -175.702 -40.0855 -173.602
lowerback 6.68812 2.05946 4.42512
upperback -10.2437 3.17814 2.91821
thorax -15.0429 0.954835 0.241663
lowerneck -17.1495 -2.77599 -2.38063
upperneck 34.0644 -4.2609 -2.32291
head 14.6333 -3.09542 -1.44368
rclavicle -1.49089e-014 -3.89618e-014
rhumerus -50.8474 21.3917 -84.814
rradius 35.8167
rwrist -6.63123
rhand -23.1895 -22.3108
rfingers 7.12502
rthumb 3.26007 307.734
lclavicle -1.49089e-014 -3.89618e-014
lhumerus -47.1852 7.41007 75.6408
lradius 32.6343
lwrist -12.447
lhand -23.6324 34.1813
lfingers 7.12502
lthumb 2.83237 64.1423
rfemur 11.6368 44.9349 46.4288
rtibia -12.8658
rfoot -66.2265 -33.6713
rtoes 34.6247
lfemur -21.8936 -25.4558 2.17543
ltibia 12.0693
lfoot -11.7203 22.852
ltoes -69.5774
290
root 10.374 15.6621 4.29939 -175.667 -40.2024 -173.633
lowerback 6.78273 2.04078 4.42195
upperback -10.2679 3.16128 2.92994
thorax -15.1355 0.945673 0.257949
lowerneck -17.2223 -2.76292 -2.29619
upperneck 34.0769 -4.22095 -2.43832
head 14.6498 -3.08206 -1.5008
rclavicle 3.13086e-014 -7.95139e-016
rhumerus -50.8927 21.486 -84.875
rradius 35.8412
rwrist -6.86686
rhand -23.1614 -22.3009
rfingers 7.12502
rthumb 3.28721 307.745
lclavicle 3.13086e-014 -7.95139e-016
lhumerus -47.1388 7.26833 75.8567
lradius 32.7164
lwrist -12.5022
lhand -25.2946 32.1351
lfingers 7.12502
lthumb 1.22707 62.1113
rfemur 11.6284 44.8259 46.3686
rtibia -12.9184
rfoot -66.3028 -33.7085
rtoes 34.3362
lfemur -21.8623 -25.6694 2.15677
ltibia 11.8486
lfoot -11.7307 23.0057
ltoes -69.5522
291
root 10.3708 15.6648 4.29941 -175.645 -40.2606 -173.627
lowerback 6.83177 2.04492 4.46271
upperback -10.2739 3.17743 2.93586
thorax -15.1729 0.948135 0.237785
lowerneck -17.1057 -2.80626 -2.22626
upperneck 33.9348 -4.25696 -2.56068
head 14.5521 -3.10229 -1.55893
rclavicle -3.83654e-014 -6.2816e-014
rhumerus -50.9167 21.5834 -84.9695
rradius 35.8921
rwrist -7.1512
rhand -23.3501 -22.4593
rfingers 7.12502
rthumb 3.10496 307.584
lclavicle -3.83654e-014 -6.2816e-014
lhumerus -47.0349 7.1169 76.0676
lradius 32.7794
lwrist -12.5766
lhand -25.1617 31.8968
lfingers 7.12502
lthumb 1.35543 61.8722
rfemur 11.5895 44.7792 46.3271
rtibia -12.9393
rfoot -66.2796 -33.8616
rtoes 34.0125
lfemur -21.8603 -25.5471 2.14566
ltibia 11.726
lfoot -11.3805 23.0638
ltoes -69.7511
292
root 10.368 15.669 4.29943 -175.646 -40.2792 -173.544
lowerback 6.84599 2.06116 4.56268
upperback -10.2744 3.21551 2.95356
thorax -15.1782 0.955106 0.194667
lowerneck -17.0267 -2.80136 -2.07803
upperneck 33.904 -4.22795 -2.77319
head 14.5095 -3.10219 -1.66242
rclavicle 3.67752e-014 3.26007e-014
rhumerus -50.9003 21.6051 -85.0097
rradius 35.9161
rwrist -7.1947
rhand -23.5066 -22.4224
rfingers 7.12502
rthumb 2.95382 307.618
lclavicle 3.67752e-014 3.26007e-014
lhumerus -46.9325 6.95218 76.2834
lradius 32.864
lwrist -12.673
lhand -25.0643 32.2766
lfingers 7.12502
lthumb 1.44944 62.2514
rfemur 11.5021 44.7821 46.3226
rtibia -12.935
rfoot -66.1614 -33.9981
rtoes 33.9811
lfemur -21.8806 -25.4574 2.24473
ltibia 11.6246
lfoot -11.3179 23.0071
ltoes -69.7085
293
root 10.3657 15.6713 4.29983 -175.615 -40.2968 -173.509
lowerback 6.84934 2.07137 4.6335
upperback -10.2813 3.23903 2.95735
thorax -15.1851 0.957444 0.155331
lowerneck -16.9931 -2.79886 -1.98367
upperneck 33.8757 -4.21563 -2.88421
head 14.4828 -3.10018 -1.71932
rclavicle -2.69353e-014 -2.62396e-014
rhumerus -50.8802 21.5843 -85.0169
rradius 35.9322
rwrist -7.13357
rhand -23.5382 -22.2273
rfingers 7.12502
rthumb 2.92337 307.813
lclavicle -2.69353e-014 -2.62396e-014
lhumerus -46.8626 6.7546 76.5047
lradius 32.8859
lwrist -12.6335
lhand -25.4233 32.347
lfingers 7.12502
lthumb 1.10277 62.3239
rfemur 11.4009 44.7932 46.3006
rtibia -12.8853
rfoot -66.1163 -33.9765
rtoes 34.2029
lfemur -21.9294 -25.5074 2.33816
ltibia 11.5741
lfoot -11.6067 22.8984
ltoes -69.4351
294
root 10.3637 15.6718 4.29995 -175.503 -40.3211 -173.582
lowerback 6.82768 2.07026 4.67753
upperback -10.2854 3.23792 2.91584
thorax -15.1709 0.949356 0.0852299
lowerneck -16.9671 -2.80835 -2.03565
upperneck 33.7744 -4.24608 -2.75051
head 14.4359 -3.09583 -1.65511
rclavicle 4.47266e-015 6.12257e-014
rhumerus -50.8243 21.5456 -85.0395
rradius 35.9202
rwrist -7.09255
rhand -23.4967 -22.2221
rfingers 7.12502
rthumb 2.96339 307.819
lclavicle 4.47266e-015 6.12257e-014
lhumerus -46.7707 6.53217 76.6969
lradius 32.8498
lwrist -12.3876
lhand -25.5925 32.1539
lfingers 7.12502
lthumb 0.939323 62.1316
rfemur 11.2856 44.8022 46.1994
rtibia -12.8182
rfoot -66.1793 -33.9244
rtoes 34.9381
lfemur -21.9735 -25.6553 2.34543
ltibia 11.4864
lfoot -12.1015 22.7818
ltoes -69.0944
295
root 10.3604 15.6731 4.30037 -175.375 -40.3658 -173.691
lowerback 6.82853 2.06217 4.72165
upperback -10.3032 3.22773 2.8606
thorax -15.1874 0.934992 0.0011442
lowerneck -16.9851 -2.7914 -2.05248
upperneck 33.813 -4.23983 -2.68995
head 14.4598 -3.08769 -1.62889
rclavicle 1.49089e-014 1.74931e-014
rhumerus -50.8855 21.5112 -85.0924
rradius 35.9971
rwrist -7.09136
rhand -23.5005 -22.2675
rfingers 7.12502
rthumb 2.9598 307.773
lclavicle 1.49089e-014 1.74931e-014
lhumerus -46.7235 6.41 76.8123
lradius 32.8446
lwrist -12.1204
lhand -25.301 32.0123
lfingers 7.12502
lthumb 1.22084 61.9885
rfemur 11.2212 44.7788 46.076
rtibia -12.8193
rfoot -66.2804 -33.8639
rtoes 35.3889
lfemur -21.9854 -25.9016 2.30469
ltibia 11.3284
lfoot -12.7365 22.7082
ltoes -68.7482
296
root 10.3567 15.6747 4.29989 -175.295 -40.4199 -173.755
lowerback 6.85595 2.06134 4.74577
upperback -10.3406 3.22844 2.83306
thorax -15.2479 0.927735 -0.0430502
lowerneck -17.0155 -2.74883 -2.04125
upperneck 33.9376 -4.18835 -2.70769
head 14.5232 -3.07194 -1.63637
rclavicle 1.05455e-013 5.1684e-014
rhumerus -51.072 21.4897 -85.1448
rradius 36.1877
rwrist -7.14814
rhand -23.5771 -22.2627
rfingers 7.12502
rthumb 2.8858 307.777
lclavicle 1.05455e-013 5.1684e-014
lhumerus -46.7546 6.36968 76.8959
lradius 32.8863
lwrist -12.0494
lhand -24.6306 32.4175
lfingers 7.12502
lthumb 1.86836 62.3891
rfemur 11.2232 44.7356 46.0253
rtibia -12.8642
rfoot -66.2978 -33.7613
rtoes 34.7643
lfemur -22.066 -25.9158 2.25634
ltibia 11.3535
lfoot -13.0935 22.5144
ltoes -68.5649
297
root 10.3536 15.6765 4.29884 -175.246 -40.4492 -173.753
lowerback 6.84935 2.06412 4.83288
upperback -10.3569 3.24108 2.81902
thorax -15.2582 0.921316 -0.108798
lowerneck -17.0918 -2.68244 -2.13615
upperneck 33.9982 -4.10257 -2.57397
head 14.5756 -3.02834 -1.55562
rclavicle 2.64384e-014 1.11319e-014
rhumerus -51.1245 21.5032 -85.1999
rradius 36.3197
rwrist -7.2117
rhand -23.6956 -22.2519
rfingers 7.12502
rthumb 2.77132 307.786
lclavicle 2.64384e-014 1.11319e-014
lhumerus -46.7796 6.31438 77.0018
lradius 32.9561
lwrist -11.9457
lhand -23.1272 33.7326
lfingers 7.12502
lthumb 3.32024 63.6865
rfemur 11.199 44.7242 46.0157
rtibia -12.8882
rfoot -66.239 -33.7467
rtoes 34.4229
lfemur -22.1679 -25.7561 2.26411
ltibia 11.421
lfoot -13.1427 22.3278
ltoes -68.4773
298
root 10.3492 15.6787 4.29837 -175.23 -40.4618 -173.707
lowerback 6.80951 2.06696 4.97089
upperback -10.3427 3.25988 2.81975
thorax -15.2077 0.91547 -0.187099
lowerneck -17.1438 -2.66885 -2.21125
upperneck 33.9656 -4.07506 -2.4889
head 14.5773 -3.01026 -1.50274
rclavicle 1.94809e-014 -1.43125e-014
rhumerus -51.0477 21.5019 -85.2276
rradius 36.3366
rwrist -7.23513
rhand -23.7935 -21.9993
rfingers 7.12502
rthumb 2.67675 308.038
lclavicle 1.94809e-014 -1.43125e-014
lhumerus -46.7765 6.18333 77.1651
lradius 33.0557
lwrist -11.6534
lhand -22.159 34.4449
lfingers 7.12502
lthumb 4.25523 64.3822
rfemur 11.1825 44.7244 46.0349
rtibia -12.909
rfoot -66.2092 -33.7599
rtoes 34.6397
lfemur -22.1629 -25.6608 2.29719
ltibia 11.333
lfoot -12.8056 22.421
ltoes -68.6497
